<?xml version="1.0" standalone="no"?>
<!DOCTYPE svg PUBLIC "-//W3C//DTD SVG 20010904//EN"
 "http://www.w3.org/TR/2001/REC-SVG-20010904/DTD/svg10.dtd">
<svg version="1.0" xmlns="http://www.w3.org/2000/svg"
 width="311.000000pt" height="162.000000pt" viewBox="0 0 311.000000 162.000000"
 preserveAspectRatio="xMidYMid meet">

<g transform="translate(0.000000,162.000000) scale(0.100000,-0.100000)"
fill="#000000" stroke="none">
<path d="M1640 1170 c-91 -19 -140 -81 -140 -174 0 -108 35 -141 183 -171 123
-26 147 -42 147 -100 0 -39 -18 -65 -55 -81 -54 -22 -129 -18 -197 13 l-59 26
-26 -25 c-14 -14 -22 -31 -19 -37 4 -6 31 -24 59 -38 47 -25 63 -27 157 -28
88 0 111 3 140 21 98 57 119 188 42 265 -31 31 -50 39 -117 54 -143 31 -175
51 -175 108 0 87 150 123 248 59 24 -15 26 -15 48 12 13 15 24 32 24 37 0 18
-103 58 -160 63 -30 3 -75 1 -100 -4z"/>
<path d="M80 865 l0 -305 195 0 195 0 0 35 0 35 -139 0 c-77 0 -146 3 -155 6
-13 5 -16 23 -16 95 l0 89 135 0 135 0 0 40 0 40 -135 0 -135 0 0 95 0 95 155
0 155 0 0 40 0 40 -195 0 -195 0 0 -305z"/>
<path d="M2890 1055 c0 -58 -2 -65 -20 -65 -16 0 -20 -7 -20 -35 0 -28 4 -35
20 -35 19 0 20 -7 20 -139 0 -77 5 -152 11 -171 13 -35 57 -60 108 -60 26 0
29 3 33 40 3 32 0 40 -13 40 -48 0 -49 5 -49 151 l0 139 33 0 c30 0 32 2 32
33 0 28 -4 33 -30 37 -29 5 -30 7 -33 68 l-3 62 -44 0 -45 0 0 -65z"/>
<path d="M695 986 c-78 -29 -115 -96 -115 -211 0 -148 65 -225 190 -225 51 0
106 18 136 43 l25 22 -29 28 -29 28 -34 -20 c-79 -49 -162 -11 -174 79 -21
150 67 235 174 169 l34 -21 30 30 30 30 -41 27 c-51 33 -138 42 -197 21z"/>
<path d="M2110 978 c-71 -37 -92 -87 -88 -213 4 -121 21 -159 88 -192 90 -46
206 -20 248 56 19 33 22 54 22 148 0 120 -11 151 -73 197 -43 31 -139 34 -197
4z m142 -69 c28 -15 48 -70 48 -134 0 -64 -20 -119 -48 -134 -38 -20 -82 -13
-113 18 -28 28 -29 34 -29 116 0 82 1 88 29 116 31 31 75 38 113 18z"/>
<path d="M2636 975 c-34 -23 -36 -23 -36 -5 0 17 -7 20 -45 20 l-45 0 0 -215
0 -215 45 0 45 0 0 159 0 160 27 21 c27 21 42 22 116 8 12 -2 28 9 44 29 l25
32 -31 15 c-45 24 -102 20 -145 -9z"/>
<path d="M1155 970 c-41 -20 -102 -62 -120 -82 -5 -6 4 -3 21 7 l30 17 36 -36
c32 -32 42 -36 88 -36 48 0 150 33 150 49 0 7 -51 57 -80 78 -31 23 -83 24
-125 3z"/>
<path d="M1401 814 c-1 -40 -3 -42 -37 -49 -52 -9 -73 -25 -96 -69 -22 -43
-37 -146 -21 -146 31 0 110 33 134 56 36 34 42 68 31 169 -6 52 -10 65 -11 39z"/>
<path d="M1009 788 c-19 -45 -16 -118 5 -151 19 -27 145 -97 175 -97 9 1 1 7
-18 15 -28 13 -32 19 -26 38 26 82 8 138 -63 193 -25 19 -48 34 -52 34 -4 0
-13 -14 -21 -32z"/>
</g>
</svg>
