<?xml version="1.0" encoding="utf-8"?>
<!-- Generator: Adobe Illustrator 19.2.1, SVG Export Plug-In . SVG Version: 6.00 Build 0)  -->
<svg version="1.1" id="layer" xmlns="http://www.w3.org/2000/svg" xmlns:xlink="http://www.w3.org/1999/xlink" x="0px" y="0px"
	 viewBox="0 0 652 652" style="enable-background:new 0 0 652 652;" xml:space="preserve">
<style type="text/css">
	.st0{fill:#00AEEF;}
</style>
<path class="st0" d="M158.9,327.9c0-21.4,15.1-38.8,36.5-38.8c23.8,0,35.8,18.7,35.8,40.2c0,1,0,4-0.3,4.7h-54.5
	c1.7,12,10.4,18.7,21.4,18.7c8.4,0,14.4-3,20.1-9l10,9c-7,8.4-16.7,14.1-30.5,14.1C175.2,367.1,158.9,351.4,158.9,327.9z
	 M213.7,322.9c-1-11-7.7-19.7-18.7-19.7c-10.4,0-17.7,8-19.4,19.7H213.7z M235.1,328.3c0-21.1,16.4-38.8,38.5-38.8
	c14.1,0,22.8,5.4,29.8,12.7l-10.7,11.4c-5.4-5.4-10.7-9.4-19.4-9.4c-12.4,0-21.4,10.7-21.4,24.1c0,13.4,9,24.1,22.4,24.1
	c8,0,14.1-3.7,19.4-9.4l10.4,10c-7.4,8-16.1,14.1-30.5,14.1C251.2,367.1,235.1,349.7,235.1,328.3z M304.1,328.3
	c0-21.4,17.1-38.8,39.8-38.8c22.8,0,39.5,17.4,39.5,38.8c0,21.1-17.1,38.8-39.8,38.8C320.8,367.1,304.1,349.7,304.1,328.3z
	 M366.3,328.3c0-13.1-9.4-24.1-22.8-24.1c-13.7,0-22.4,10.7-22.4,24.1c0,13.1,9.4,24.1,22.8,24.1C357.6,352,366.3,341.3,366.3,328.3
	z M385.1,355.7l7.7-11.7c8,6,16.7,9,24.4,9c7.4,0,11.7-3,11.7-8.4c0-5.4-7-7.4-15.4-9.7c-0.3,0-1-0.3-1.3-0.3
	c-11-3.3-23.1-7.7-23.1-22.4c0-14.1,11.7-22.8,26.4-22.8c9.4,0,19.4,3.3,27.4,8.4l-6.7,12c-7-4.4-14.7-7-21.1-7
	c-6.7,0-10.4,3-10.4,7.7c0,5,7,7.4,15.4,10c0.3,0,1,0.3,1.3,0.3c10.7,3.3,23.1,8.4,23.1,22.1c0,15.7-12,23.4-27.8,23.4
	C405.8,366.7,394.1,362.7,385.1,355.7z M448,328.3c0-21.4,17.1-38.8,39.8-38.8c22.8,0,39.5,17.4,39.5,38.8
	c0,21.1-17.1,38.8-39.8,38.8C464.7,367.1,448,349.7,448,328.3z M510.2,328.3c0-13.1-9.4-24.1-22.8-24.1c-13.7,0-22.4,10.7-22.4,24.1
	c0,13.1,9.4,24.1,22.8,24.1C501.5,352,510.2,341.3,510.2,328.3z M538,305.5h-9.4v-14.4h9.4v-5.4c0-8.4,4-26.8,36.5-26.8v14.7
	c-6,0-19.7,0-19.7,13.4v4h19.7v14.1h-19.4v59.9H538L538,305.5L538,305.5z M584.8,344.7v-70.6c4,0.7,13.4,2.7,17.1,5.4v11.7h11.4
	v14.1h-11.4v36.5c0,6.7,3.3,9.4,9,9.4c3.7,0,7-1,10.7-2.7v14.1c-4.4,2.3-9,3.7-15.4,3.7C593.9,366.4,584.8,361.1,584.8,344.7z
	 M164.5,389.8h2.7l4.7,14.4l4.7-14.4h2.3l4.7,14.4l4.7-14.4h2.7l-6.4,18.1h-2.3l-4.7-14.1l-4.7,14.1h-2.3
	C170.6,407.9,164.5,389.8,164.5,389.8z M191.3,402.2c0-3.7,3-5.7,7.7-5.7c2.3,0,4,0.3,5.4,0.7v-0.7c0-3-2-4.7-5.4-4.7
	c-2,0-3.7,0.7-5.4,1.3l-0.7-2c2-1,3.7-1.7,6.4-1.7c2.7,0,4.4,0.7,5.7,2s2,3,2,5.4v10.7h-2.7v-2.7c-1.3,1.7-3.3,3-6.4,3
	C194.7,407.9,191.3,405.9,191.3,402.2z M204.4,400.9v-1.7c-1.3-0.3-3-0.7-5.4-0.7c-3.3,0-5.4,1.3-5.4,3.7s2,3.7,4.4,3.7
	C201.7,405.6,204.4,403.9,204.4,400.9z M211.1,402.9v-10.7h-2.3v-2.3h2.3v-5.4h2.7v5.4h5.7v2.3h-5.7v10.4c0,2,1.3,3,3,3
	c1,0,1.7-0.3,2.7-0.7v2.3c-1,0.3-2,0.7-3.3,0.7C213.1,407.9,211.1,406.2,211.1,402.9z M228.8,405.6c2.3,0,4-1,5.7-2.7l1.7,1.3
	c-1.7,2-4,3.3-7.4,3.3c-5,0-9-3.7-9-9.4c0-5,3.7-9.4,8.7-9.4c5.4,0,8.4,4.4,8.4,9.4v1h-14.4C222.8,403.6,225.8,405.6,228.8,405.6z
	 M233.8,397.5c-0.3-3.3-2.3-6-5.7-6c-3,0-5.4,2.7-5.7,6H233.8z M239.2,389.8h2.7v4.7c1.3-3,4-5,7.4-5v3h-0.3c-4,0-7,2.7-7,8v7h-2.7
	C239.2,407.6,239.2,389.8,239.2,389.8z M259.2,389.8h2.7v3.7c1.3-2,3.7-4,6.7-4c4.4,0,8.4,3.3,8.4,9.4c0,5.7-4.4,9.4-8.4,9.4
	c-3.3,0-5.4-1.7-6.7-3.7v9h-2.7V389.8z M274.6,398.5c0-4.4-3-7-6.4-7s-6.4,2.7-6.4,7s3,7,6.4,7S274.6,402.9,274.6,398.5z M280,389.8
	h2.7v4.7c1.3-3,4-5,7.4-5v3h-0.3c-4,0-7,2.7-7,8v7H280C280,407.6,280,389.8,280,389.8z M290,398.5c0-5,4-9.4,9.4-9.4
	c5.4,0,9.4,4.4,9.4,9.4c0,5-4,9.4-9.4,9.4C293.7,407.9,290,403.6,290,398.5z M305.8,398.5c0-3.7-3-7-6.7-7c-4,0-6.4,3-6.4,7
	c0,4,2.7,7,6.7,7C303.1,405.6,305.8,402.6,305.8,398.5z M311.4,392.2h-2.3v-2.3h2.3v-1.7c0-2,0.7-3.7,1.7-4.7c1-1,2.3-1.3,3.7-1.3
	s2,0,3,0.3v2.3c-1-0.3-1.7-0.3-2.7-0.3c-2,0-3,1.3-3,3.7v1.3h5.7v2.3h-5.7v15.4h-2.7C311.4,407.2,311.4,392.2,311.4,392.2z
	 M328.5,405.6c2.3,0,4-1,5.7-2.7l1.7,1.3c-1.7,2-4,3.3-7.4,3.3c-5,0-9-3.7-9-9.4c0-5,3.7-9.4,8.4-9.4c5.4,0,8.4,4.4,8.4,9.4v1h-14.1
	C322.5,403.6,325.5,405.6,328.5,405.6z M333.9,397.5c-0.3-3.3-2-6-5.7-6c-3,0-5.4,2.7-5.7,6C322.5,397.5,333.9,397.5,333.9,397.5z
	 M337.2,405.2l1.3-2c2,1.3,4,2.3,6,2.3c2,0,3.7-1,3.7-3c0-1.7-2-2.3-4.4-3c-2.7-0.7-6-1.7-6-5c0-3,2.7-5,6-5c2,0,4.7,0.7,6.4,2
	l-1.3,2c-1.7-1-3.7-1.7-5.4-1.7c-2,0-3.3,1-3.3,2.7s2.3,2.3,4.7,3c2.7,0.7,5.7,2,5.7,5c0,3.3-2.7,5.4-6.4,5.4
	C342.2,407.9,339.2,406.9,337.2,405.2z M352.3,405.2l1.3-2c2,1.3,4,2.3,6,2.3c2,0,3.7-1,3.7-3c0-1.7-2-2.3-4.4-3c-2.7-0.7-6-1.7-6-5
	c0-3,2.7-5,6-5c2,0,4.7,0.7,6.4,2l-1.3,2c-1.7-1-3.7-1.7-5.4-1.7c-2,0-3.3,1-3.3,2.7s2.3,2.3,4.7,3c2.7,0.7,5.7,2,5.7,5
	c0,3.3-2.7,5.4-6.4,5.4C357,407.9,354.3,406.9,352.3,405.2z M368.3,382.8h3v3h-3V382.8z M368.3,389.8h2.7v17.7h-2.7V389.8z
	 M373.7,398.5c0-5,4-9.4,9.4-9.4c5.4,0,9.4,4.4,9.4,9.4c0,5-4,9.4-9.4,9.4S373.7,403.6,373.7,398.5z M389.7,398.5c0-3.7-3-7-6.7-7
	c-4,0-6.4,3-6.4,7c0,4,2.7,7,6.7,7C387.1,405.6,389.7,402.6,389.7,398.5z M394.8,389.8h2.7v3c1-2,3-3.3,6-3.3c4.4,0,6.7,3,6.7,7v11
	h-2.7v-10.4c0-3.3-1.7-5.4-5-5.4c-3,0-5.4,2.3-5.4,5.7v10h-2.7v-17.7C394.4,389.8,394.8,389.8,394.8,389.8z M412.5,402.2
	c0-3.7,3-5.7,7.7-5.7c2.3,0,4,0.3,5.4,0.7v-0.7c0-3-2-4.7-5.4-4.7c-2,0-3.7,0.7-5.4,1.3l-0.7-2c2-1,4-1.7,6.4-1.7
	c2.7,0,4.4,0.7,5.7,2c1.3,1.3,2,3,2,5.4v10.7h-2.7v-2.7c-1.3,1.7-3.3,3-6.4,3C415.8,407.9,412.5,405.9,412.5,402.2L412.5,402.2z
	 M425.6,400.9v-1.7c-1.3-0.3-3-0.7-5.4-0.7c-3.3,0-5.4,1.3-5.4,3.7s2,3.7,4.4,3.7C422.9,405.6,425.6,403.9,425.6,400.9z
	 M431.9,382.5h2.7v25.1h-2.7V382.5z M436.6,405.2l1.3-2c2,1.3,4,2.3,6,2.3c2,0,3.7-1,3.7-3c0-1.7-2-2.3-4.4-3c-2.7-0.7-6-1.7-6-5
	c0-3,2.7-5,6-5c2,0,4.7,0.7,6.4,2l-1.3,2c-1.7-1-3.7-1.7-5.4-1.7c-2,0-3.3,1-3.3,2.7c0,1.7,2.3,2.3,4.7,3c2.7,0.7,5.7,2,5.7,5
	c0,3.3-2.7,5.4-6.4,5.4C441.6,407.9,438.6,406.9,436.6,405.2z M157.2,230.2c-6.7-1.3-13.7-2-20.7-2h-3
	C72.5,229.9,23.3,279.1,21.7,340c3.3,0.3,6.4,0.3,9.7,0.3c5.7,0,11.4-0.7,17.1-1.3c7.4-42.8,41.2-77,84-84c-7.4,42.8-41.2,77-84,84
	c-1,5.7-1.3,11.4-1.3,17.1c0,3.3,0,6.7,0.3,9.7c60.9-1.3,109.8-50.5,111.4-111.8v-3C159.2,243.9,158.5,236.9,157.2,230.2z
	 M41.1,407.9c5.4-2.3,10.4-5.4,14.7-9.4c-4.7-10-7.4-20.7-8.7-32.5h-3c-7,0-14.1-0.7-20.7-2C26,380.1,32.4,394.9,41.1,407.9z"/>
</svg>
